HIERARCHY
ROOT root
{
	OFFSET 0.000000 0.000000 0.000000
	CHANNELS 6 Xposition Yposition Zposition Zrotation Yrotation Xrotation
	JOINT lhip
	{
		OFFSET 0.058581 -0.082280 -0.017664
		CHANNELS 3 Zrotation Yrotation Xrotation
		JOINT lknee
		{
			OFFSET 0.043451 -0.386469 0.008037
			CHANNELS 3 Zrotation Yrotation Xrotation
			JOINT lankle
			{
				OFFSET -0.014790 -0.426874 -0.037428
				CHANNELS 3 Zrotation Yrotation Xrotation
				JOINT ltoe
				{
					OFFSET 0.041054 -0.060286 0.122042
					CHANNELS 3 Zrotation Yrotation Xrotation
					End Site
					{
						OFFSET 0.000000 0.000000 0.000000
					}
				}
			}
		}
	}
	JOINT rhip
	{
		OFFSET -0.060310 -0.090513 -0.013543
		CHANNELS 3 Zrotation Yrotation Xrotation
		JOINT rknee
		{
			OFFSET -0.043257 -0.383688 -0.004843
			CHANNELS 3 Zrotation Yrotation Xrotation
			JOINT rankle
			{
				OFFSET 0.019056 -0.420046 -0.034562
				CHANNELS 3 Zrotation Yrotation Xrotation
				JOINT rtoe
				{
					OFFSET -0.034840 -0.062106 0.130323
					CHANNELS 3 Zrotation Yrotation Xrotation
					End Site
					{
						OFFSET 0.000000 0.000000 0.000000
					}
				}
			}
		}
	}
	JOINT lowerback
	{
		OFFSET 0.004439 0.124404 -0.038385
		CHANNELS 3 Zrotation Yrotation Xrotation
		JOINT upperback
		{
			OFFSET 0.004488 0.137956 0.026820
			CHANNELS 3 Zrotation Yrotation Xrotation
			JOINT chest
			{
				OFFSET -0.002265 0.056032 0.002855
				CHANNELS 3 Zrotation Yrotation Xrotation
				JOINT lowerneck
				{
					OFFSET -0.013390 0.211636 -0.033468
					CHANNELS 3 Zrotation Yrotation Xrotation
					JOINT upperneck
					{
						OFFSET 0.010113 0.088937 0.050410
						CHANNELS 3 Zrotation Yrotation Xrotation
						End Site
						{
							OFFSET 0.000000 0.000000 0.000000
						}
					}
				}
				JOINT lclavicle
				{
					OFFSET 0.071702 0.114000 -0.018898
					CHANNELS 3 Zrotation Yrotation Xrotation
					JOINT lshoulder
					{
						OFFSET 0.122921 0.045205 -0.019046
						CHANNELS 3 Zrotation Yrotation Xrotation
						JOINT lelbow
						{
							OFFSET 0.255332 -0.015649 -0.022946
							CHANNELS 3 Zrotation Yrotation Xrotation
							JOINT lwrist
							{
								OFFSET 0.265709 0.012698 -0.007375
								CHANNELS 3 Zrotation Yrotation Xrotation
								End Site
								{
									OFFSET 0.000000 0.000000 0.000000
								}
							}
						}
					}
				}
				JOINT rclavicle
				{
					OFFSET -0.082954 0.112472 -0.023707
					CHANNELS 3 Zrotation Yrotation Xrotation
					JOINT rshoulder
					{
						OFFSET -0.113228 0.046853 -0.008472
						CHANNELS 3 Zrotation Yrotation Xrotation
						JOINT relbow
						{
							OFFSET -0.260127 -0.014369 -0.031269
							CHANNELS 3 Zrotation Yrotation Xrotation
							JOINT rwrist
							{
								OFFSET -0.269108 0.006794 -0.006027
								CHANNELS 3 Zrotation Yrotation Xrotation
								End Site
								{
									OFFSET 0.000000 0.000000 0.000000
								}
							}
						}
					}
				}
			}
		}
	}
}
MOTION
Frames: 8
Frame Time: 0.033333
1.529778 0.639429 0.916293 84.271356 -1.281891 103.168708 6.547915 -7.819097 -55.553895 -10.797837 -2.973602 36.385003 3.507161 -0.215849 1.917155 0.000000 -0.000000 0.000000 0.139200 6.687225 -29.822258 6.927561 9.923627 66.821481 3.307381 3.933845 -10.702224 0.000000 -0.000000 0.000000 -2.898943 4.184983 31.886837 2.287009 -0.649387 -2.276447 -0.020910 1.876400 6.164810 -5.841032 4.943837 -10.183455 -0.620665 -2.506390 -4.396038 -19.407377 8.014368 -1.876852 -54.761246 5.671792 15.360471 -0.996216 -59.203456 9.156643 28.164258 2.619953 -28.518041 20.384038 -0.201688 -1.129740 60.240600 8.879571 18.933313 -21.049763 55.347717 -7.408331 -8.570319 4.718948 -12.061480 
1.501355 0.634655 0.915681 85.761302 -1.472502 102.787561 6.613951 -7.727936 -56.185270 -10.494714 -2.722562 34.153273 1.952761 -0.648859 5.523905 0.000000 -0.000000 0.000000 0.134387 6.917456 -30.146295 7.382927 9.689131 66.048026 2.749612 3.446691 -14.324855 0.000000 -0.000000 0.000000 -2.431817 3.611701 31.764585 2.602148 -0.716399 -2.682337 0.057606 1.688585 6.409662 -5.556744 5.563852 -10.759716 -1.070022 -2.839171 -2.750441 -19.357083 8.592922 -1.859553 -55.528761 5.409994 15.681172 -1.179715 -59.164572 9.534169 27.964434 2.577435 -28.759281 20.473887 -0.794576 -1.421419 59.695364 9.045987 19.039147 -20.045397 54.898691 -6.623225 -9.002513 4.979357 -12.486513 
1.472823 0.630346 0.910657 87.035051 -1.536138 102.204690 6.358384 -7.011247 -57.622556 -10.023691 -1.815245 33.346399 -0.382715 -1.413352 10.118750 0.000000 -0.000000 0.000000 0.401156 6.517582 -30.661298 6.436149 7.590541 65.739341 0.891977 1.612871 -18.563768 0.000000 -0.000000 0.000000 -2.088221 3.108452 32.214655 2.850264 -0.731001 -2.730129 0.299060 1.463358 6.354100 -5.366679 6.063139 -11.826356 -1.437994 -2.803312 -2.132400 -20.095147 9.096527 -2.226125 -55.601354 5.315792 15.527626 -0.770318 -59.763764 9.825772 27.019732 2.432405 -29.016774 21.002246 -0.956384 -1.432416 58.486378 9.201289 18.691564 -19.702380 55.034018 -6.201506 -9.039169 5.183583 -12.771749 
1.444637 0.626232 0.902617 87.498119 -1.657559 102.038328 6.622959 -6.077898 -59.475219 -9.885697 -0.565189 32.666583 -2.249620 -1.840550 13.940350 0.000000 -0.000000 0.000000 0.704204 5.526931 -32.478901 4.867512 5.495905 66.107927 -0.440831 -0.175297 -21.971814 0.000000 -0.000000 0.000000 -2.086803 3.135109 32.552402 2.917419 -0.549120 -3.129615 0.578582 1.404486 6.163877 -5.258442 6.283335 -12.380963 -1.348246 -3.104428 -1.454896 -20.630526 9.179184 -2.141906 -55.623044 4.931492 15.509722 -0.256167 -59.823036 9.796514 27.063016 2.781146 -29.114183 21.551021 -1.013198 -0.779665 57.527453 9.456033 18.066194 -19.946867 54.543920 -6.270303 -9.088305 5.298068 -13.361857 
1.417775 0.622003 0.892601 87.318195 -1.236378 101.139729 8.056738 -4.815385 -60.269002 -9.832311 0.863859 31.705816 -4.202915 -3.449238 18.210080 0.000000 -0.000000 0.000000 1.147040 6.581412 -33.888085 5.559281 4.373417 67.640257 -2.126211 -2.699139 -23.734237 0.000000 -0.000000 0.000000 -1.910684 2.978957 33.513681 2.566427 -0.144690 -3.067506 0.891342 1.225341 6.160150 -5.579065 5.234124 -14.098408 -0.117193 -1.520533 1.190854 -20.377516 7.936097 -3.408998 -56.638137 6.517135 13.646160 -0.675622 -59.891511 8.454291 29.445299 1.870764 -26.961277 20.412985 1.472670 -1.100465 58.321173 7.982252 16.281596 -20.505041 53.315487 -9.948463 -7.090010 6.362019 -9.085564 
1.394445 0.618484 0.881900 87.379230 -1.353681 99.758897 8.455127 -4.352636 -59.938737 -10.336043 0.526081 30.487708 -4.986363 -3.617036 20.130785 0.000000 -0.000000 0.000000 1.070390 6.963662 -35.535826 5.819116 3.680456 70.279695 -2.853999 -2.975730 -24.360431 0.000000 -0.000000 0.000000 -1.896828 2.544598 34.238743 2.385457 0.063266 -2.662205 0.603873 1.290708 6.073802 -5.453695 5.553106 -13.191637 0.474900 -1.644098 2.027485 -20.029401 7.343156 -2.955870 -57.338642 5.888274 13.297804 1.573763 -59.122920 6.112521 28.646534 2.143430 -27.304293 20.218318 2.049248 -0.520960 58.758386 8.563079 15.681309 -19.963245 50.855115 -9.090405 -6.885509 6.183219 -8.982405 
1.373614 0.616754 0.871743 87.831353 -1.510125 98.133347 8.156558 -4.450878 -58.995879 -10.200284 0.125474 28.904576 -5.508857 -3.499566 21.539638 0.000000 -0.000000 0.000000 0.675219 7.338675 -36.726656 5.270864 2.131464 72.665848 -2.902582 -3.060779 -25.158261 0.000000 -0.000000 0.000000 -1.689170 1.592537 35.373017 2.192320 0.042390 -2.647937 0.347866 1.168173 5.979953 -5.272980 5.960158 -11.728212 0.129695 -1.073444 3.336078 -20.148240 7.196035 -3.020894 -57.717410 5.752534 13.238035 3.483047 -58.329568 3.873456 29.001921 2.066482 -27.004904 19.821990 2.352744 -0.685928 59.377458 8.821376 15.611011 -18.675971 47.976323 -8.433402 -7.088584 5.788721 -7.654977 
1.354686 0.615483 0.863200 87.997562 -1.360120 96.485810 7.830757 -4.133657 -57.787804 -10.036595 -0.033268 27.366652 -5.805848 -3.247181 22.515508 0.000000 -0.000000 0.000000 1.022850 7.066309 -37.182798 4.976888 1.403261 74.267250 -3.931413 -3.720635 -26.059032 0.000000 -0.000000 0.000000 -1.332920 1.115875 35.914197 2.117185 0.079300 -2.461263 0.345656 1.090710 6.051850 -5.530631 5.706320 -9.448706 -0.016649 -0.543391 4.214907 -20.088153 6.861648 -2.788539 -58.390095 5.573055 13.042305 4.603884 -57.343506 2.146085 29.425801 2.558867 -27.113315 19.487357 2.636705 -0.192439 59.306796 9.003789 14.893150 -16.765424 45.374639 -7.617831 -7.555287 5.632386 -6.943736 
